<?xml version="1.0" standalone="no"?>
<!DOCTYPE svg PUBLIC "-//W3C//DTD SVG 1.1//EN" "http://www.w3.org/Graphics/SVG/1.1/DTD/svg11.dtd">
<svg width="100%" height="100%" version="1.1" xmlns="http://www.w3.org/2000/svg" xmlns:xlink="http://www.w3.org/1999/xlink">
<rect x="145" y="215" width="20" height="20" stroke="black" stroke-width="2" fill="green"/><text x="145" y="202" font-family="Verdana" font-size="10" fill="black"> NA12877 </text>
<circle cx="205" cy="225" r="10" stroke="black" stroke-width="2" fill="green"/>
<text x="195" y="255" font-family="Verdana" font-size="10" fill="black"> NA12878 </text>
<circle cx="80" cy="425" r="10" stroke="black" stroke-width="2" fill="red"/>
<text x="70" y="402" font-family="Verdana" font-size="10" fill="black"> NA12879 </text>
<circle cx="105" cy="425" r="10" stroke="black" stroke-width="2" fill="black"/>
<text x="95" y="402" font-family="Verdana" font-size="10" fill="black"> NA12880 </text>
<circle cx="130" cy="425" r="10" stroke="black" stroke-width="2" fill="black"/>
<text x="120" y="402" font-family="Verdana" font-size="10" fill="black"> NA12881 </text>
<rect x="145" y="415" width="20" height="20" stroke="black" stroke-width="2" fill="green"/><text x="145" y="412" font-family="Verdana" font-size="10" fill="black"> NA12882 </text>
<rect x="170" y="415" width="20" height="20" stroke="black" stroke-width="2" fill="green"/><text x="170" y="445" font-family="Verdana" font-size="10" fill="black"> NA12883 </text>
<rect x="195" y="415" width="20" height="20" stroke="black" stroke-width="2" fill="green"/><text x="195" y="412" font-family="Verdana" font-size="10" fill="black"> NA12884 </text>
<circle cx="230" cy="425" r="10" stroke="black" stroke-width="2" fill="red"/>
<text x="220" y="402" font-family="Verdana" font-size="10" fill="black"> NA12885 </text>
<rect x="245" y="415" width="20" height="20" stroke="black" stroke-width="2" fill="red"/><text x="245" y="402" font-family="Verdana" font-size="10" fill="black"> NA12886 </text>
<circle cx="280" cy="425" r="10" stroke="black" stroke-width="2" fill="black"/>
<text x="270" y="402" font-family="Verdana" font-size="10" fill="black"> NA12887 </text>
<rect x="295" y="415" width="20" height="20" stroke="black" stroke-width="2" fill="green"/><text x="295" y="445" font-family="Verdana" font-size="10" fill="black"> NA12888 </text>
<rect x="145" y="15" width="20" height="20" stroke="black" stroke-width="2" fill="green"/><text x="145" y="45" font-family="Verdana" font-size="10" fill="black"> NA12889 </text>
<circle cx="205" cy="25" r="10" stroke="black" stroke-width="2" fill="black"/>
<text x="195" y="12" font-family="Verdana" font-size="10" fill="black"> NA12890 </text>
<rect x="320" y="15" width="20" height="20" stroke="black" stroke-width="2" fill="black"/><text x="320" y="55" font-family="Verdana" font-size="10" fill="black"> NA12891 </text>
<circle cx="380" cy="25" r="10" stroke="black" stroke-width="2" fill="green"/>
<text x="370" y="2" font-family="Verdana" font-size="10" fill="black"> NA12892 </text>
<rect x="320" y="415" width="20" height="20" stroke="black" stroke-width="2" fill="black"/><text x="320" y="412" font-family="Verdana" font-size="10" fill="black"> NA12893 </text>
<line x1="155" y1="35" x2="155" y2="63" stroke-width="1" stroke="black" />
<line x1="205" y1="35" x2="205" y2="63" stroke-width="1" stroke="black" />
<line x1="155" y1="63" x2="205" y2="63" stroke-width="1" stroke="black" />
<line x1="180" y1="63" x2="180" y2="187" stroke-width="1" stroke="black" />
<line x1="180" y1="187" x2="155" y2="187" stroke-width="1" stroke="black" />
<line x1="155" y1="187" x2="155" y2="215" stroke-width="1" stroke="black" />
<line x1="330" y1="35" x2="330" y2="91" stroke-width="1" stroke="black" />
<line x1="380" y1="35" x2="380" y2="91" stroke-width="1" stroke="black" />
<line x1="330" y1="91" x2="380" y2="91" stroke-width="1" stroke="black" />
<line x1="355" y1="91" x2="355" y2="159" stroke-width="1" stroke="black" />
<line x1="355" y1="159" x2="205" y2="159" stroke-width="1" stroke="black" />
<line x1="205" y1="159" x2="205" y2="215" stroke-width="1" stroke="black" />
<line x1="155" y1="235" x2="155" y2="285" stroke-width="1" stroke="black" />
<line x1="205" y1="235" x2="205" y2="285" stroke-width="1" stroke="black" />
<line x1="155" y1="285" x2="205" y2="285" stroke-width="1" stroke="black" />
<line x1="180" y1="285" x2="180" y2="365" stroke-width="1" stroke="black" />
<line x1="180" y1="365" x2="80" y2="365" stroke-width="1" stroke="black" />
<line x1="80" y1="365" x2="80" y2="415" stroke-width="1" stroke="black" />
<line x1="180" y1="365" x2="105" y2="365" stroke-width="1" stroke="black" />
<line x1="105" y1="365" x2="105" y2="415" stroke-width="1" stroke="black" />
<line x1="180" y1="365" x2="130" y2="365" stroke-width="1" stroke="black" />
<line x1="130" y1="365" x2="130" y2="415" stroke-width="1" stroke="black" />
<line x1="180" y1="365" x2="155" y2="365" stroke-width="1" stroke="black" />
<line x1="155" y1="365" x2="155" y2="415" stroke-width="1" stroke="black" />
<line x1="180" y1="365" x2="180" y2="365" stroke-width="1" stroke="black" />
<line x1="180" y1="365" x2="180" y2="415" stroke-width="1" stroke="black" />
<line x1="180" y1="365" x2="205" y2="365" stroke-width="1" stroke="black" />
<line x1="205" y1="365" x2="205" y2="415" stroke-width="1" stroke="black" />
<line x1="180" y1="365" x2="230" y2="365" stroke-width="1" stroke="black" />
<line x1="230" y1="365" x2="230" y2="415" stroke-width="1" stroke="black" />
<line x1="180" y1="365" x2="255" y2="365" stroke-width="1" stroke="black" />
<line x1="255" y1="365" x2="255" y2="415" stroke-width="1" stroke="black" />
<line x1="180" y1="365" x2="280" y2="365" stroke-width="1" stroke="black" />
<line x1="280" y1="365" x2="280" y2="415" stroke-width="1" stroke="black" />
<line x1="180" y1="365" x2="305" y2="365" stroke-width="1" stroke="black" />
<line x1="305" y1="365" x2="305" y2="415" stroke-width="1" stroke="black" />
<line x1="180" y1="365" x2="330" y2="365" stroke-width="1" stroke="black" />
<line x1="330" y1="365" x2="330" y2="415" stroke-width="1" stroke="black" />
<line x1="0" y1="25" x2="540" y2="25" style="stroke-dasharray: 2, 10; stroke-width: 1; stroke: grey;" />
<text x="0" y="45" font-family="Verdana" font-size="10" fill="black"> Gen_1 </text>
<line x1="0" y1="225" x2="540" y2="225" style="stroke-dasharray: 2, 10; stroke-width: 1; stroke: grey;" />
<text x="0" y="245" font-family="Verdana" font-size="10" fill="black"> Gen_2 </text>
<line x1="0" y1="425" x2="540" y2="425" style="stroke-dasharray: 2, 10; stroke-width: 1; stroke: grey;" />
<text x="0" y="445" font-family="Verdana" font-size="10" fill="black"> Gen_3 </text>
</svg>
